Coordinates
version=1
nRows=11
nColumns=40
inDegrees=yes

Units are S.I. units (second, meters, Newtons, ...)
If the header above contains a line with 'inDegrees', this indicates whether rotational values are in degrees (yes) or radians (no).

endheader
time	pelvis_tilt	pelvis_list	pelvis_rotation	pelvis_tx	pelvis_ty	pelvis_tz	hip_flexion_r	hip_adduction_r	hip_rotation_r	knee_angle_r	knee_angle_r_beta	ankle_angle_r	subtalar_angle_r	mtp_angle_r	hip_flexion_l	hip_adduction_l	hip_rotation_l	knee_angle_l	knee_angle_l_beta	ankle_angle_l	subtalar_angle_l	mtp_angle_l	lumbar_extension	lumbar_bending	lumbar_rotation	arm_flex_r	arm_add_r	arm_rot_r	elbow_flex_r	pro_sup_r	wrist_flex_r	wrist_dev_r	arm_flex_l	arm_add_l	arm_rot_l	elbow_flex_l	pro_sup_l	wrist_flex_l	wrist_dev_l
      5.95000000	    -35.53237638	      5.76506347	      7.79591699	     -0.40372895	      0.68018274	     -1.01507535	     26.25041444	     -9.15755079	      1.61968270	     83.36021247	      1.45491017	    -13.67903420	      0.00000000	      0.00000000	     88.04175276	      4.48551123	    -16.89132473	     82.83899904	      1.44581328	     19.84734861	      0.00000000	      0.00000000	     -2.84540823	    -12.83133590	     -7.12708859	     89.94776739	    -10.61743761	      3.85738510	     44.26073605	     72.90013394	      0.00000000	      0.00000000	     89.95187741	    -17.02429247	      8.33031698	     51.78270483	     80.89575215	      0.00000000	      0.00000000
      5.95500000	    -35.51221714	      5.70467641	      7.87422120	     -0.40357996	      0.67983410	     -1.01499902	     26.15416951	     -9.09698790	      1.53344489	     83.32537243	      1.45430210	    -13.29993247	      0.00000000	      0.00000000	     88.09246715	      4.50370663	    -16.83778507	     82.98553105	      1.44837075	     19.71049247	      0.00000000	      0.00000000	     -2.89100701	    -12.77345453	     -7.14560448	     89.94783719	    -10.61738879	      3.92122582	     44.21835001	     70.41980672	      0.00000000	      0.00000000	     89.95199152	    -16.85050225	      8.44099582	     51.69890771	     77.82023888	      0.00000000	      0.00000000
      5.96000000	    -35.59181377	      5.73573809	      7.89641018	     -0.40355386	      0.67952867	     -1.01493670	     26.27452997	     -9.12254363	      1.57195986	     83.30494810	      1.45394563	    -13.86812000	      0.00000000	      0.00000000	     88.14716460	      4.50657854	    -16.90204493	     82.96344954	      1.44798535	     19.87380416	      0.00000000	      0.00000000	     -2.86617485	    -12.80286159	     -7.14961817	     89.94774878	    -10.69041752	      3.86681670	     44.25480638	     72.69697569	      0.00000000	      0.00000000	     89.95196459	    -16.94595427	      8.32094062	     51.72381253	     81.15903667	      0.00000000	      0.00000000
      5.96500000	    -35.62371083	      5.71884077	      7.94798369	     -0.40348883	      0.67920238	     -1.01488094	     26.30102063	     -9.11453206	      1.56254390	     83.30497945	      1.45394617	    -13.69576393	      0.00000000	      0.00000000	     88.20837260	      4.52367625	    -16.90511866	     83.01681950	      1.44891683	     19.87741350	      0.00000000	      0.00000000	     -2.87851624	    -12.79218521	     -7.17155245	     89.94769018	    -10.72230213	      3.82467531	     44.23796803	     72.76493495	      0.00000000	      0.00000000	     89.95199349	    -16.89839519	      8.31144406	     51.72533288	     81.09303542	      0.00000000	      0.00000000
      5.97000000	    -35.66386118	      5.67308054	      7.98321041	     -0.40344812	      0.67887585	     -1.01476305	     26.34203792	     -9.06019555	      1.54534914	     83.30425496	      1.45393353	    -13.62598244	      0.00000000	      0.00000000	     88.27773943	      4.51973982	    -16.88063569	     83.05827875	      1.44964044	     19.93092456	      0.00000000	      0.00000000	     -2.86647931	    -12.74535266	     -7.15188604	     89.94767328	    -10.73204467	      3.96781649	     44.25615342	     70.60109161	      0.00000000	      0.00000000	     89.95201884	    -16.85711111	      8.55572804	     51.75347647	     78.31088656	      0.00000000	      0.00000000
      5.97500000	    -35.68369251	      5.75610984	      8.12437097	     -0.40334054	      0.67865235	     -1.01504302	     26.33872405	     -9.21329191	      1.49834087	     83.31462636	      1.45411455	    -13.66087052	      0.00000000	      0.00000000	     88.30647820	      4.71374862	    -16.93748468	     83.07178986	      1.44987625	     20.00714048	      0.00000000	      0.00000000	     -2.93100626	    -12.82142321	     -7.29095271	     89.94770630	    -10.79334562	      3.77257036	     44.20565359	     73.08480066	      0.00000000	      0.00000000	     89.95199630	    -16.81553942	      8.31716336	     51.69746464	     80.92397061	      0.00000000	      0.00000000
      5.98000000	    -35.71474429	      5.69363589	      8.14824198	     -0.40327459	      0.67829876	     -1.01491158	     26.37520142	     -9.15134507	      1.45508732	     83.31028703	      1.45403881	    -13.64388007	      0.00000000	      0.00000000	     88.38074740	      4.69937093	    -16.88728921	     83.15074392	      1.45125426	     20.05150178	      0.00000000	      0.00000000	     -2.92792781	    -12.75009092	     -7.27598259	     89.94772137	    -10.79052021	      3.93088660	     44.26253355	     71.02867500	      0.00000000	      0.00000000	     89.95196689	    -16.79510754	      8.55062520	     51.76212947	     78.38263448	      0.00000000	      0.00000000
      5.98500000	    -35.70940384	      5.71745801	      8.15686309	     -0.40310735	      0.67810702	     -1.01480849	     26.36885643	     -9.13571529	      1.52238492	     83.29919005	      1.45384513	    -13.66280430	      0.00000000	      0.00000000	     88.37952671	      4.70262668	    -16.90514615	     83.18760285	      1.45189757	     20.07584908	      0.00000000	      0.00000000	     -2.98063836	    -12.77670950	     -7.23888309	     89.94775516	    -10.81591842	      3.75457864	     44.25985049	     71.73359971	      0.00000000	      0.00000000	     89.95181936	    -16.75618289	      8.43021823	     51.66803989	     80.30022813	      0.00000000	      0.00000000
      5.99000000	    -35.76663199	      5.66241084	      8.18924119	     -0.40301987	      0.67776520	     -1.01468510	     26.43835060	     -9.10525114	      1.44385257	     83.30636646	      1.45397038	    -13.58901400	      0.00000000	      0.00000000	     88.46908091	      4.69871686	    -16.84857374	     83.23792612	      1.45277587	     20.03381309	      0.00000000	      0.00000000	     -2.94998590	    -12.72350464	     -7.26438060	     89.94757831	    -10.82051703	      3.64246707	     44.20774987	     72.73607709	      0.00000000	      0.00000000	     89.95202287	    -16.79011289	      8.34513369	     51.75774207	     81.17344166	      0.00000000	      0.00000000
      5.99500000	    -35.78496551	      5.69618963	      8.19503332	     -0.40287558	      0.67753528	     -1.01455052	     26.46358911	     -9.10501500	      1.50457886	     83.30642556	      1.45397141	    -13.53382155	      0.00000000	      0.00000000	     88.49746515	      4.69825085	    -16.88101048	     83.30121792	      1.45388052	     20.07774777	      0.00000000	      0.00000000	     -2.96425267	    -12.77494011	     -7.22429915	     89.94751933	    -10.85607177	      3.59274453	     44.17404894	     72.97249994	      0.00000000	      0.00000000	     89.95201535	    -16.75979723	      8.39006655	     51.72772778	     81.19173980	      0.00000000	      0.00000000
      6.00000000	    -35.74975165	      5.60693577	      8.24416767	     -0.40274048	      0.67718294	     -1.01439478	     26.38506840	     -8.97635690	      1.44621713	     83.29478430	      1.45376824	    -13.14796810	      0.00000000	      0.00000000	     88.55068154	      4.69467380	    -16.78645817	     83.45583800	      1.45657915	     20.01409944	      0.00000000	      0.00000000	     -3.00068943	    -12.68221573	     -7.22781523	     89.94756509	    -10.84650190	      3.65058029	     44.12831067	     70.74488228	      0.00000000	      0.00000000	     89.95211347	    -16.60277578	      8.51142100	     51.66181332	     78.47900433	      0.00000000	      0.00000000
